# xmcd CD database file
#
# Track frame offsets:
#	150
#	16655
#	33157
#	50350
#
# Disc length: 1230 seconds
#
# Revision: 1
# Processed by: cddbd v1.5.1PL2 Copyright (c) Steve Scherf et al.
# Submitted via: CDex 1.51
#
DISCID=2004cc04
DTITLE=Britney Spears - Someday (I Will Understand)
DYEAR=2005
DGENRE=Pop
TTITLE0=Someday (I Will Understand) (Album Version)
TTITLE1=Someday (I Will Understand) (Instrumental)
TTITLE2=Someday (I Will Understand) (Hi-Bias Signature Radio Remix)
TTITLE3=Someday (I Will Understand) (Leama And Moor Remix)
EXTD=YEAR: 2005
EXTT0=
EXTT1=
EXTT2=
EXTT3=
PLAYORDER=
